HIERARCHY
ROOT Hips
{
 OFFSET 0.000000 0.000000 0.000000
 CHANNELS 6 Xposition Yposition Zposition Yrotation Xrotation Zrotation
 JOINT Chest
 {
  OFFSET 0.000000 9.585900 0.002600
  CHANNELS 3 Yrotation Xrotation Zrotation
  JOINT Chest2
  {
   OFFSET 0.000000 9.601200 -0.005300
   CHANNELS 3 Yrotation Xrotation Zrotation
   JOINT Chest3
   {
    OFFSET 0.000000 9.561800 0.000000
    CHANNELS 3 Yrotation Xrotation Zrotation
    JOINT Chest4
    {
     OFFSET 0.000000 9.552100 0.000000
     CHANNELS 3 Yrotation Xrotation Zrotation
     JOINT Neck
     {
      OFFSET 0.000000 14.453000 0.000000
      CHANNELS 3 Yrotation Xrotation Zrotation
      JOINT Head
      {
       OFFSET 0.000000 8.936500 -0.011300
       CHANNELS 3 Yrotation Xrotation Zrotation
       End Site
       {
        OFFSET 0.000000 17.073600 -0.006000
       }
      }
     }
     JOINT RightCollar
     {
      OFFSET -2.921100 9.558500 0.000000
      CHANNELS 3 Yrotation Xrotation Zrotation
      JOINT RightShoulder
      {
       OFFSET -13.519700 0.000000 0.000000
       CHANNELS 3 Yrotation Xrotation Zrotation
       JOINT RightElbow
       {
        OFFSET 0.000000 -29.696600 0.000000
        CHANNELS 3 Yrotation Xrotation Zrotation
        JOINT RightWrist
        {
         OFFSET 0.000000 -24.004700 0.000000
         CHANNELS 3 Yrotation Xrotation Zrotation
         End Site
         {
          OFFSET 0.000000 -17.728500 0.000000
         }
        }
       }
      }
     }
     JOINT LeftCollar
     {
      OFFSET 2.921100 9.558500 0.000000
      CHANNELS 3 Yrotation Xrotation Zrotation
      JOINT LeftShoulder
      {
       OFFSET 13.519700 0.000000 0.000000
       CHANNELS 3 Yrotation Xrotation Zrotation
       JOINT LeftElbow
       {
        OFFSET 0.000000 -29.696600 0.000000
        CHANNELS 3 Yrotation Xrotation Zrotation
        JOINT LeftWrist
        {
         OFFSET 0.000000 -24.004700 0.000000
         CHANNELS 3 Yrotation Xrotation Zrotation
         End Site
         {
          OFFSET 0.000000 -17.728500 0.000000
         }
        }
       }
      }
     }
    }
   }
  }
 }
 JOINT RightHip
 {
  OFFSET -7.771700 -0.012900 -0.001300
  CHANNELS 3 Yrotation Xrotation Zrotation
  JOINT RightKnee
  {
   OFFSET 0.000000 -40.869800 0.001200
   CHANNELS 3 Yrotation Xrotation Zrotation
   JOINT RightAnkle
   {
    OFFSET 0.000000 -39.717900 0.002100
    CHANNELS 3 Yrotation Xrotation Zrotation
    JOINT RightToe
    {
     OFFSET 0.000000 -4.965400 11.033500
     CHANNELS 3 Yrotation Xrotation Zrotation
     End Site
     {
      OFFSET 0.000000 -1.423100 5.872300
     }
    }
   }
  }
 }
 JOINT LeftHip
 {
  OFFSET 7.771700 -0.012900 -0.001300
  CHANNELS 3 Yrotation Xrotation Zrotation
  JOINT LeftKnee
  {
   OFFSET 0.000000 -40.869800 0.001200
   CHANNELS 3 Yrotation Xrotation Zrotation
   JOINT LeftAnkle
   {
    OFFSET 0.000000 -39.717900 0.002100
    CHANNELS 3 Yrotation Xrotation Zrotation
    JOINT LeftToe
    {
     OFFSET 0.000000 -4.965400 11.033500
     CHANNELS 3 Yrotation Xrotation Zrotation
     End Site
     {
      OFFSET 0.000000 -1.423100 5.872300
     }
    }
   }
  }
 }
}
MOTION
Frames: 12
Frame Time: 0.008333
2.743125 50.095918 42.299787 172.654677 -33.075753 -6.937656 6.685759 18.718939 7.008389 0.711977 2.395483 0.610179 1.168307 3.917502 1.016658 5.493715 16.127139 4.856909 -2.857678 15.790083 0.893532 -5.698488 -6.459372 2.655362 -1.243374 -2.799125 -5.377885 1.346400 -1.587152 -5.256400 103.580484 -72.573365 -115.635273 15.041311 1.776508 52.575102 -11.115670 -2.155552 0.179450 9.176849 -4.675867 1.356018 -105.151820 -60.316972 120.312846 -9.117110 5.994351 -79.228856 1.714208 -48.094188 8.906832 -84.269234 82.978995 -72.533170 -0.773031 -8.877985 -3.411565 -0.291098 1.189719 -0.140824 -10.793103 -51.532550 17.713648 -153.078134 84.038561 -160.111967 -0.434086 -11.883477 6.468825 -0.061085 -0.191235 -0.012825
2.744019 50.097069 42.303100 172.649655 -33.080000 -6.924503 6.673234 18.724469 6.995649 0.708625 2.389846 0.609141 1.178958 3.911333 1.013004 5.477951 16.138478 4.857454 -2.873676 15.762877 0.872003 -5.717782 -6.513242 2.626483 -1.233933 -2.772098 -5.376056 1.347996 -1.605266 -5.579919 105.560073 -72.675311 -117.416571 15.080089 1.593983 53.505941 -11.120148 -2.145491 0.171600 9.288009 -4.737267 1.581073 -107.220876 -61.313834 121.749113 -8.692521 6.286941 -79.597135 1.706935 -48.093809 8.909061 -84.269289 82.981625 -72.543613 -0.765976 -8.873611 -3.428626 -0.275730 1.185802 -0.126601 -10.762919 -51.528091 17.696087 -153.028318 84.048678 -160.073832 -0.436922 -11.881327 6.490673 -0.071342 -0.185213 -0.019223
2.746135 50.098500 42.306490 172.644592 -33.086744 -6.915290 6.671866 18.702787 6.986067 0.707182 2.413391 0.611236 1.180764 3.907353 1.011680 5.473900 16.131075 4.854186 -2.893594 15.739483 0.855245 -5.740079 -6.557151 2.605695 -1.242831 -2.727802 -5.353357 1.341959 -1.633703 -5.907101 107.578946 -72.771506 -119.240044 15.124099 1.403796 54.422039 -11.125600 -2.125559 0.171293 9.369579 -4.795996 1.785121 -109.351713 -62.284502 123.268593 -8.270461 6.582131 -79.937891 1.703006 -48.090560 8.915147 -84.257041 82.982281 -72.530538 -0.802868 -8.874485 -3.429982 -0.244614 1.185402 -0.128931 -10.741559 -51.523997 17.689805 -152.998624 84.050796 -160.049937 -0.450465 -11.876213 6.501093 -0.070740 -0.182302 -0.020648
2.751665 50.100043 42.310993 172.639830 -33.091301 -6.924866 6.685361 18.679932 6.998026 0.702203 2.417750 0.611074 1.179829 3.915436 1.012946 5.489045 16.073490 4.838171 -2.926374 15.698720 0.830425 -5.759033 -6.523655 2.610179 -1.275998 -2.628566 -5.299079 1.328137 -1.672846 -6.236750 109.635229 -72.862161 -121.102480 15.158280 1.212596 55.331944 -11.181583 -2.052038 0.177853 9.468952 -4.859763 1.968613 -111.525357 -63.214087 124.849975 -7.858763 6.875965 -80.270441 1.688746 -48.088032 8.934964 -84.198774 82.991094 -72.468164 -0.780083 -8.868265 -3.448205 -0.292228 1.183746 -0.121327 -10.750314 -51.521008 17.715991 -152.989377 84.049843 -160.041419 -0.460592 -11.871241 6.503142 -0.070484 -0.180661 -0.021497
2.755620 50.101310 42.315323 172.637525 -33.094915 -6.924893 6.695417 18.653189 6.997780 0.711532 2.382863 0.606586 1.177752 3.912682 1.012937 5.491709 16.073886 4.841597 -2.941650 15.705659 0.829056 -5.779418 -6.532314 2.606457 -1.306089 -2.533157 -5.238862 1.309384 -1.722047 -6.562113 111.701292 -72.947452 -122.984147 15.163130 1.018362 56.246851 -11.236847 -1.990769 0.178715 9.564120 -4.924829 2.127035 -113.725880 -64.088084 126.480902 -7.461168 7.168262 -80.610900 1.663415 -48.083784 8.954197 -84.131732 83.002203 -72.395052 -0.824146 -8.869205 -3.467014 -0.283945 1.183381 -0.119433 -10.744598 -51.518695 17.728556 -152.948829 84.051639 -160.008625 -0.475629 -11.867101 6.513569 -0.070669 -0.177093 -0.022027
2.755659 50.102937 42.317435 172.643697 -33.107114 -6.904551 6.693561 18.637072 6.971954 0.711505 2.378355 0.605715 1.180633 3.895394 1.009346 5.493660 16.069406 4.843119 -2.948455 15.709043 0.832303 -5.793101 -6.525498 2.614747 -1.327715 -2.446644 -5.171607 1.286020 -1.780041 -6.873262 113.756955 -73.031703 -124.873943 15.136491 0.821662 57.177766 -11.292150 -1.941454 0.164050 9.657175 -4.996057 2.272033 -115.925561 -64.893280 128.148731 -7.076420 7.456719 -80.960984 1.637549 -48.066262 8.949724 -84.100847 83.008944 -72.385818 -0.835897 -8.879356 -3.454393 -0.257145 1.189831 -0.139252 -10.710235 -51.508202 17.693512 -152.907901 84.058167 -159.978236 -0.488648 -11.860732 6.527470 -0.070581 -0.174634 -0.023346
2.758924 50.104495 42.320406 172.645192 -33.116002 -6.903005 6.706065 18.613765 6.967808 0.711608 2.373550 0.604715 1.171780 3.909339 1.013941 5.505539 16.033644 4.831447 -2.956158 15.730391 0.845594 -5.803278 -6.501641 2.639989 -1.347081 -2.357458 -5.093764 1.255289 -1.846921 -7.163884 115.815243 -73.123300 -126.783259 15.087240 0.628812 58.133549 -11.324142 -1.885326 0.168286 9.707550 -5.053085 2.355071 -118.110478 -65.589464 129.859018 -6.701075 7.726737 -81.316609 1.601592 -48.053323 8.960889 -84.056907 83.021966 -72.351356 -0.798553 -8.877326 -3.474263 -0.252714 1.189571 -0.139306 -10.698256 -51.500538 17.694220 -152.893357 84.060457 -159.969118 -0.501491 -11.857423 6.536165 -0.066395 -0.170585 -0.025403
2.762698 50.106118 42.322874 172.662021 -33.123743 -6.914931 6.709279 18.591740 6.970072 0.711927 2.369304 0.603780 1.163378 3.920219 1.016894 5.513338 16.012677 4.825323 -2.965792 15.761225 0.860964 -5.814023 -6.449713 2.684398 -1.362543 -2.298556 -5.046003 1.224220 -1.906564 -7.398418 117.890090 -73.227152 -128.719070 15.018822 0.446827 59.116670 -11.355760 -1.837791 0.160825 9.777525 -5.140522 2.438225 -120.289202 -66.208456 131.550074 -6.329293 7.972270 -81.643823 1.569101 -48.041596 8.963083 -84.048103 83.029543 -72.331571 -0.748132 -8.866994 -3.523128 -0.277883 1.180757 -0.118014 -10.698101 -51.487230 17.700588 -152.835296 84.069313 -159.926344 -0.498853 -11.864940 6.562476 -0.084002 -0.156928 -0.033616
2.766010 50.107874 42.324299 172.670297 -33.133598 -6.921724 6.719441 18.575787 6.974658 0.712391 2.366108 0.603053 1.177839 3.882757 1.006522 5.492795 16.060916 4.845925 -2.958703 15.751391 0.866688 -5.842159 -6.312132 2.747272 -1.364959 -2.265555 -5.008657 1.191585 -1.975785 -7.602686 119.968969 -73.340730 -130.666233 14.926620 0.266782 60.121738 -11.367256 -1.815277 0.148141 9.861690 -5.252104 2.516089 -122.447662 -66.740977 133.200580 -5.935375 8.174237 -81.907803 1.543250 -48.030385 8.970914 -84.066107 83.027683 -72.342009 -0.729069 -8.858885 -3.544218 -0.246849 1.172309 -0.114853 -10.692448 -51.479119 17.701667 -152.768928 84.067448 -159.860631 -0.497309 -11.863189 6.567269 -0.085327 -0.156046 -0.032117
2.764032 50.108742 42.324655 172.684466 -33.136389 -6.902656 6.713694 18.562031 6.950262 0.708728 2.367812 0.602327 1.170079 3.892428 1.008372 5.510089 16.029808 4.837020 -2.968427 15.801369 0.895968 -5.868029 -6.122420 2.809811 -1.360789 -2.150282 -4.892542 1.145361 -2.076406 -7.782805 121.990359 -73.394122 -132.581608 14.808909 0.067466 61.132732 -11.366499 -1.728690 0.124293 9.903868 -5.380377 2.575074 -124.519661 -67.120050 134.809456 -5.468997 8.295784 -82.097053 1.526286 -48.022624 8.940999 -84.099866 83.028388 -72.372501 -0.725895 -8.857688 -3.570639 -0.223373 1.167677 -0.109888 -10.651740 -51.476396 17.644234 -152.730119 84.081211 -159.830274 -0.475488 -11.861447 6.582934 -0.110973 -0.151923 -0.035262
2.764197 50.110118 42.324554 172.691179 -33.138977 -6.895032 6.711989 18.557168 6.940858 0.704811 2.370892 0.601921 1.182985 3.871670 1.004119 5.537964 15.980993 4.830066 -3.000388 15.920679 0.939658 -5.882411 -5.885319 2.874084 -1.374819 -2.025987 -4.810810 1.093981 -2.154624 -7.909991 124.055705 -73.468278 -134.549588 14.666939 -0.160771 62.126085 -11.399019 -1.625028 0.128385 9.947028 -5.476563 2.599592 -126.413156 -67.343072 136.292689 -4.879660 8.315375 -82.191567 1.504756 -48.014709 8.927824 -84.119643 83.035164 -72.389210 -0.707941 -8.862970 -3.588719 -0.240044 1.168902 -0.113807 -10.639598 -51.473484 17.633637 -152.625136 84.079238 -159.737884 -0.474419 -11.860670 6.591747 -0.115052 -0.149851 -0.033271
2.763915 50.111297 42.324440 172.691045 -33.134943 -6.883359 6.715120 18.546028 6.931116 0.713048 2.359053 0.601747 1.183484 3.865419 1.003323 5.545887 15.967231 4.832399 -3.009367 16.036303 0.972922 -5.893151 -5.634823 2.941273 -1.370999 -1.950475 -4.769227 0.972299 -2.276747 -8.119737 126.347892 -73.661554 -136.677998 14.494805 -0.421933 63.074730 -11.413186 -1.558914 0.125893 9.959858 -5.534576 2.604924 -128.085901 -67.410499 137.637828 -4.155180 8.223198 -82.166457 1.474963 -48.013550 8.915521 -84.125547 83.049378 -72.400283 -0.672312 -8.859208 -3.602841 -0.253071 1.168722 -0.123164 -10.620316 -51.478974 17.617935 -152.565249 84.079048 -159.683873 -0.476493 -11.859270 6.594725 -0.112968 -0.149311 -0.029864
